<svg xmlns="http://www.w3.org/2000/svg" viewBox="368.26 416.38 1029.1 179.03"><path fill="#838383" d="M368.262 447.715c18.39 21.06 31.444 33.881 59.362 42.085 20.536 6.036 38.034 6.501 47.081 28.624-30.065 38.235-25.842 26.116-27.314 76.623l-48.303.096-.006-72.011 8.382 3.272c13.55 3.241 23.33 3.605 38.479 8.068-3.31-1.785-6.98-4.073-10.507-5.272-17.72-6.027-39.521-6.333-50.492-24.01-3.67-5.917-4.644-10.435-6.197-16.987 26.187 21.422 37.841 19.54 68.747 29.364 2.46.781 4.357 3.141 7.134 3.072-5.173-16.534-86.478-9.178-86.366-72.924"/><path fill="#838383" d="m1163.17 456.03 16.426-.14q.354 49.404-.228 98.81c-3.404.125-14.01.819-16.287-.521l-.263-6.055c-8.074-.212-14.554 17.347-40.042 4.003-19.625-13.275-23.992-40.364-9.12-58.718a33.06 33.06 0 0 1 22.854-12.356c11.671-.994 18.651 3.467 26.864 10.51-.552-11.918-.329-23.612-.204-35.533m-16.186 84.907c6.65-2.268 11.334-5.485 14.474-12.046a24.08 24.08 0 0 0 .871-18.234c-3.892-10.873-11.855-13.945-22.51-14.29-6.574 1.546-11.002 3.645-14.731 9.614-6.727 10.771-3.692 26.498 7.753 32.779 5.036 2.763 8.497 2.363 14.143 2.177"/><path fill="#838383" d="M531.292 421.17c14.512-.811 26.616 1.02 35.817 13.7 3.235 4.46 7.916 13.398 6.998 19.028l-.772.096c-1.52-2.36-2.506-4.02-4.384-6.151.872 3.061 3.222 10.79 3.268 13.392.193 11.028-8.2 20.437-4.192 31.53.38 1.051.326 1.38.086 2.354-9.364-11.044-.416-18.815-2.384-31.101-.194.922-.577 2.59-.622 3.446-.51 9.55-7.452 18.059-5.016 27.752 2.084 8.297 9.148 11.88 15.882 16.017-37.354-11.134-14.745-32.025-25.6-49.627-23.438-19.703-60.978 39.149-74.15 54.96-4.688-12.333-8.819-18.027-20.801-24.15 9.393-11.908 18.78-23.843 28.283-35.661 13.7-17.041 25.351-30.415 47.587-35.585"/><path fill="#838383" d="M760.923 481.525c9.048-.524 14.811-.68 22.811 3.956 1.83 1.062 6.036 4.711 7.375 4.583.076-2.59.168-4.132.546-6.693 3.359-1.16 12.047-.732 16.039-.71l-.079 72.172c-3.374.046-13.946.678-15.997-.99-.295-2.25-.437-4.039-.56-6.306l-.993.236c-4.756 3.728-7.819 5.99-13.695 7.694a31.58 31.58 0 0 1-24.419-2.684c-28.09-15.662-25.098-61.886 8.972-71.258m14.866 59.799c23.98-9.144 21.089-45.521-9.19-44.825-27.308 8.264-20.577 48.328 9.19 44.825"/><path fill="#838383" d="M1221.2 481.44c14.953-1.003 18.622.984 29.688 9.924l.113-8.47 16.416-.266-.27 72.187c-4.74.004-11.307 1.386-15.103-.583-2.048-2.75-1.304-2.97-1.251-7.243-4.713 3.41-8.868 6.332-14.45 8.155-18.927 6.177-36.589-6.796-41.958-24.968a40.64 40.64 0 0 1 3.436-31.35c5.5-9.785 12.908-14.42 23.379-17.386m14.51 59.613c13.5-5.249 19.572-18.622 13.798-32.07a21.1 21.1 0 0 0-12.074-11.598c-4.03-1.473-7.398-1.197-11.625-.94-13.424 5.002-19.839 18.175-14.515 31.648a21 21 0 0 0 11.37 11.694c4.464 1.913 8.3 1.689 13.046 1.266"/><path fill="#838383" d="m1350.757 481.475 1.28-.098c13.96-.992 18.346 1.296 28.346 9.967l.027.037.147-8.348 16.573-.034c.347 22.644.387 49.23-.467 71.762-4.613.148-10.2.68-14.666-.176-1.56-.297-1.534-4.745-2.867-6.754-45.253 37.13-85.65-49.035-28.373-66.356m15.04 59.529c24.586-9.876 18.893-46.488-10.427-44.555-13.333 4.467-19.68 17.579-14.787 30.752a21.53 21.53 0 0 0 11.414 12.202c4.733 2.15 8.6 1.793 13.8 1.601"/><path fill="#838383" d="M932.03 481.639c20.585-4.512 40.92 8.56 45.369 29.164 4.45 20.604-8.68 40.904-29.292 45.292-20.525 4.369-40.716-8.695-45.147-29.212-4.429-20.516 8.571-40.75 29.07-45.244m13.316 58.625c11.698-2.945 18.889-14.713 16.176-26.47-2.715-11.757-14.335-19.18-26.139-16.698a22.16 22.16 0 0 0-16.585 15.065 22.16 22.16 0 0 0 5.04 21.835 22.15 22.15 0 0 0 21.508 6.268"/><path fill="#838383" d="M496.57 505.61c2.047 1.943 3.585 3.946 5.331 6.15 15.571 19.653 30.87 39.515 46.54 59.09 5.4 6.743 10.796 12.809 17.884 17.86 4.866 3.467 9.163 4.5 14.804 6.247-8.153.446-17.681.338-25.942.438-36.451.342-42.804-8.714-64.238-36.442-5.932-7.673-12.698-16.024-18.76-23.725 6.67-9.148 16.94-20.935 24.38-29.619"/><path fill="#838383" d="M374.622 416.988c7.853-.708 16.333-.026 24.025-.434 55.643-2.947 50.295 31.106 50.06 73.653-20.717-5.658-30.619-8.578-49.692-19.024-.055-15.021 2.21-40.479-13.317-49.039-3.663-2.02-8.714-1.772-11.076-5.156"/><path fill="#838383" d="m665.568 456.016 16.444.006c.328 18.298-.215 36.722.07 55.111 8.455-7.656 18.122-19.357 26.255-28.008a671 671 0 0 1 21.537-.453c-8.862 8.273-22.59 24.39-30.965 33.755l20.937 24.452c4.12 4.424 7.843 9.18 11.64 13.886l-20.368-.112a1358 1358 0 0 0-29.329-33.681l.227 33.64a980 980 0 0 1-16.326-.143q-.674-49.226-.122-98.453"/><path fill="#838383" d="M1012.077 480.719c11.856.656 17.384 3.68 25.584 12.002-4.408 5.078-6.11 6.563-11.326 10.754-5.467-4.454-10.022-8.468-17.414-5.872-2.453 2.341-1.994 1.256-2.276 4.058 2.99 6.2 17.244 10.56 23.087 15.524 18.736 15.92 6.715 37.398-15.981 39.142-12.926-.56-18.061-2.114-26.09-12.98 3.546-3.695 7.183-6.946 10.962-10.38 5.032 5.166 13.26 12.82 21.817 5.693 1.67-1.39 1.357-3.05 1.184-5.03-5.43-9.863-29.652-14.145-31.461-28.982-1.783-14.62 8.861-21.76 21.914-23.93"/><path fill="#838383" d="m1288.055 456.863 16.532.097.1 26.293 11.451.044c.27 4.487.204 9.498.241 14.031l-11.74-.11-.22 56.489-.39.512c-3.163 1.008-12.232.502-16.027.437q-.191-28.691.55-57.372c-3.449-.081-6.573.333-9.171-1.625-1.716-2.686-.967-8.859-.836-12.338l9.462-.15z"/><path fill="#838383" d="M885.544 481.472c3.184-.095 6.571-.36 9.087 1.548 3.545 5.197 1.217 8.875-2.659 12.915-2.806 2.922-9.292-2.046-12.844 2.782-2.272 3.09-3.298 6.807-3.557 10.556-1.028 14.955-.503 30.262-.381 45.276l-13.536.106-1.71-.128c-2.37-4.502-1.203-62.975-1.14-71.428l14.663-.219c-.061 2.423-.052 3.773.195 6.181 2.445.15 4.924-4.716 10.966-7.217z"/><path fill="#838383" d="m826.067 482.95 16.478-.107c-.686 23.057-.207 48.665-.13 71.83a1070 1070 0 0 0-16.421-.098q-.173-35.813.073-71.624"/><path fill="#838383" d="M1051.04 507.39c12.275.403 26.85 0 39.307-.018l-.068 15.944-39.316.007c-.1-5.124.042-10.766.077-15.932"/><path fill="#838383" d="M830.563 454.939c5.346-2.29 11.532.213 13.782 5.577s-.303 11.533-5.683 13.741c-5.321 2.184-11.408-.333-13.632-5.64-2.225-5.305.245-11.413 5.533-13.678"/></svg>