<svg xmlns="http://www.w3.org/2000/svg" viewBox="438.1 336.03 910.17 406.75"><path fill="#838383" d="M824.09 477.373c22.713-1.178 38.488 8.662 51.894 26.092.33-7.713.315-14.49.194-22.217l20.242-.144.327 137.34-19.913-.106-.27-22.93c-5.06 6.682-8.456 9.978-14.869 14.984-46.014 28.597-105.044 2.61-109.009-53.068-3.28-46.065 25.32-76.417 71.404-79.95m9.444 124.841c28.828-4.407 48.598-31.394 44.114-60.218s-31.517-48.525-60.322-43.963c-28.695 4.546-48.3 31.46-43.833 60.175 4.466 28.713 31.322 48.396 60.04 44.006"/><path fill="#838383" d="M438.096 381.343c22.35 35.703 58.77 60.496 98.924 72.063 32.577 9.385 63.116 10.346 77.95 45.947-5.026 7.306-20.169 24.635-26.727 31.795-23.55 25.71-18.854 58.188-18.966 92.208l-79.569.01.219-115.847c27.738 10.488 46.221 7.881 74.692 18.114-42.579-24.382-94.882-10.238-105.895-74.24 12.512 13.647 25.945 22.39 43.325 28.56 11 5.522 35.394 8.374 48.082 11.542 16.168 4.038 19.92 7.034 33.594 14.378l.926-.426c-14.726-14.274-39.327-21.05-58.595-26.115-32.017-8.4-61.813-23.054-77.344-53.962-7.985-15.891-8.784-26.872-10.616-44.027"/><path fill="#838383" d="M1141.134 478.28c39.298-5.73 75.823 21.417 81.678 60.705 5.854 39.288-21.168 75.91-60.427 81.893-39.438 6.01-76.256-21.17-82.137-60.637-5.881-39.468 21.41-76.206 60.886-81.96m17.674 123.09c28.677-4.174 48.51-30.854 44.25-59.526s-30.992-48.43-59.644-44.083c-28.53 4.328-48.18 30.93-43.94 59.48 4.242 28.55 30.778 48.285 59.334 44.13"/><path fill="#838383" d="m581.46 457.195 37.04-45.63c23.492-28.838 51.004-66.165 90.677-70.411 36.076-3.862 66.902 20.404 67.068 57.608-3.808-8.612-7.332-16.823-14.91-22.979 8.076 12.927 14.37 25.372 10.366 41.17-2.522 9.95-8.232 19.69-8.824 29.8-.07 1.191 4.326 13.757 4.913 15.463-11.705-3.602-7.68-27.218-5.973-35.637 1.024-8.368 1.661-13.35-.423-21.797-.608 1.774-1.065 14.652-1.527 18.122-8.212 25.915-16.774 46.328 15.22 60.961-13.005-2.412-17.368-3.549-26.478-14.68-18.425-22.509 8.662-62.45-22.884-70.277-10.203-2.53-22.984 3.546-30.681 9.227-29.838 22.023-53.415 63.652-78.739 89.342-6.559-21.88-13.641-31.018-34.845-40.282"/><path fill="#838383" d="M650.553 479.35c4.935 4.714 16.116 19.9 21.096 26.18l46.913 58.855c14.03 17.574 29.007 38.555 47.688 51.733 4.15 2.928 12.721 3.023 17.33 6.296l-.442.803c-7.85.927-31.473.485-40.484.545-37.666.3-53.81.871-80.602-30.835-17.886-21.167-35.147-43.403-52.735-64.782 6.723-9.804 32.935-39.174 41.236-48.796"/><path fill="#838383" d="M464.65 336.5c2.97-.209 6.878-.248 9.954-.189 26.373.51 60.99-5.032 80.808 16.667 16.621 18.197 16.31 42.534 16.4 65.374a712 712 0 0 1-.524 35.866l-8.512-2.36c-25.25-10.211-48.121-12.987-72.792-29.011-1.08-23.176 4.148-51.59-12.245-71.155-6.455-7.702-16.705-8.968-25.595-12.764l.022-1.133c3.973-1.49 8.225-1.244 12.485-1.295"/><path fill="#838383" d="M1284.137 478.116a60 60 0 0 1 3.852-.392c30.878-2.168 55.008 8.581 56.914 42.224l-18.554-.05c-2.135-7.95-3.82-13.977-10.606-19.287-12.2-9.819-36.176-8.723-45.94 3.882-5.76 7.866-5.7 18.868 2.612 24.918 21.772 15.858 71.222 12.516 75.488 47.037 3.4 27.43-17.33 41.594-41.446 44.866-33.506.81-56.976-6.958-61.643-43.38l20.895-.037c1.658 7.71 4.122 16.446 11.106 20.95 12.32 7.947 38.686 7.878 47.747-5.36 2.43-3.55 3.817-10.723 2.5-14.706-8.044-24.297-48.437-19.632-66.88-33.792-6.81-4.606-13.334-11.049-14.622-19.792-4.04-27.446 14.118-42.946 38.577-47.08"/><path fill="#838383" d="M1055.928 479c2.88-.412 12.539-.237 15.944-.245l-.136 20.024-1.045-.02c-53.108-.978-51.62 31.673-51.362 72.569q.205 23.65.136 47.301l-20.18-.056.033-137.145 19.92.036.138 18.373c12.467-11.64 18.396-17.698 36.552-20.837"/><path fill="#838383" d="m939.515 481.177 19.92-.232q.281 68.07-.21 136.137l-.806 1.068c-4.859.802-13.46.447-18.71.388-1.114-44.218-.185-92.813-.194-137.36"/><path fill="#838383" d="M982.658 689.786c8.948-.665 8.82.51 16.85 4.21 1.157-2.111 1.19-2.218 3.047-3.69l1.68.78c4.23 7.154 2.338 36.23-1.826 44.572-6.598 13.215-36.798 6.179-28.34-5.926 4.035 1.225 10.177 10.653 18.474 8.277 6.02-1.726 8.716-11.625 7.257-16.627-1.122.659-3.702 2.5-4.67 2.879-24.347 9.552-35.46-22.703-12.472-34.475m9.28 30.699c14.302-7.5 10.063-26.863-7.736-25.488-14.832 8.635-9.587 28.244 7.737 25.488"/><path fill="#838383" d="M1049.068 689.828c34.575-1.32 23.913 51.64-8.224 32.677l-.828-.495-.419 1.783c.36 4.227 1.566 11.962.2 15.586-2.204 2.012-1.088 1.472-4.509 1.72l-1.056-.954c-1.12-12.116-.181-34.372.255-47.348.052-1.536 1.105-1.741 2.206-2.323 1.73.467 2.815 2.392 3.971 3.906 3.108-1.992 5.055-2.964 8.404-4.552m8.468 30.986c12.443-10.17 7.957-26.97-10.637-24.888-13.12 9.707-7.65 28.546 10.637 24.888"/><path fill="#838383" d="M1191.637 690.344c9.859-2.56 19.924 3.358 22.483 13.22 2.557 9.86-3.362 19.928-13.22 22.486-9.858 2.556-19.922-3.362-22.479-13.222s3.36-19.926 13.216-22.484m5.78 30.732a12.8 12.8 0 0 0 10.536-7.45 12.806 12.806 0 0 0-13.108-18.033c-6.96.796-11.988 7.039-11.285 14.01.704 6.973 6.878 12.085 13.857 11.473"/><path fill="#838383" d="M1260.9 689.797c7.765-.483 8.403.737 15.111 4.981 15.176-13.337 26.46-1.51 25.266 15.342-.354 4.992.521 10.256-.654 15.308-1.877 1.082-1.028.873-3.642.23-6.115-6.596 4.624-28.51-9.419-31.085-9.305-1.707-10.459 10.921-10.604 16.808l.244 13.636c-1.92 1.539-1.09 1.107-4.04 1.103l-1.652-1.12c-.827-8.994 1.913-23.475-4.858-30.506-1.082-.408-2.054-1.038-3.174-.748-17.177 4.447-5.55 24.97-10.761 31.987-3.11.041-2 .436-4.285-1.296-.626-1.61-.944-29.7-.292-31.97 2.108-1.185 5.658-.175 7.912-.266z"/><path fill="#838383" d="M667.776 689.87c5.26-.396 9.952-.901 14.314 2.542 2.662 2.1 9.104 9.536 8.834 12.605-.872 9.892-23.256 1.985-28.958 7.407l-.017 1.994c4.985 8.016 9.556 8.642 18.12 5.734 2.399-2.688 3.088-3.778 6.57-3.548l.695 1.574c-5.082 18.305-40.788 5.516-31.05-16.577 3.244-7.361 4.113-7.979 11.492-11.73m8.816 15.67c3.856.326 3.741.924 6.674-.592 1.464-5.638-6.233-9.778-10.954-10.834-3.804 1.008-8.435 3.306-10.647 6.603l-.165 1.75c3.946 4.458 9.422 3.174 15.092 3.073"/><path fill="#838383" d="M839.297 689.86c9.36-.335 14.893 1.602 17.625 11.526 1.34 4.866 1.744 19.883-.69 23.984-2.602.47-2.306.867-4.143-.096l-.32-3.218c-9.246 1.173-13.183 12.913-24.736-2.622-1.674-20.554 21.849-10.341 23.994-18.75-5.456-12.788-16.764.177-22.605-.688.587-6.57 5.45-8.255 10.875-10.136m4.953 31.94c4.359-2.731 8.47-5.155 6.748-10.795-3.459-2.975-4.024-2.468-9.137-2.083q-.977.073-1.955.158c-5.11 2.257-8.441 3.869-6.27 9.952 3.671 3.737 5.73 3.169 10.614 2.768"/><path fill="#838383" d="M1103.35 689.829c6.317-.475 12.963-.67 16.953 5.46 2.96 4.55 3.529 25.788 2.274 30.481l-1.573.304c-2.967-1.212-1.901-.434-3.912-3.53-5.355-1.075-11.61 12.275-24.02-1.98l-.128-1.114c-2.133-19.806 19.179-11.438 24.193-17.716-.345-2.766-2.746-6.14-5.282-7.312-7.355-3.397-10.671 8.916-17.208 5.81l-.38-2.24c1.826-5.191 3.965-5.447 9.084-8.163m6.293 32.21c4.54-2.991 8.948-5.567 6.478-11.426-3.462-2.41-5.573-1.877-9.968-1.659-5.097 2.127-8.684 3.383-7.361 9.606 3.265 4.18 5.947 3.758 10.85 3.478"/><path fill="#838383" d="M1167.273 673.918c3.032-.09 6.187-.632 8.564.91l.327 2.705c-1.979 4.87-3.994-.17-9.064 3.668-1.103 2.964-1.724 4.041-1.16 7.24 2.616 2.648 4.113 2.124 8.492 2.903.901 1.93.696 1.157.192 3.592-3.823 1.978-3.692-.414-8.134 1.074-1.566 5.164 1.031 20.984-.962 29.342l-1.098.674-1.93-.833c-3.57-5.06-2.15-22.55-2.092-29.455-5.532-.277-13.71-1.92-17.975 1.38l-.337 4.12c.045 5.67 2.596 23.928-3.936 24.622-4.035-6.686 1.858-24.016-3.644-29.738-4.337-1.053-4.185-.658-4.553-4.72 1.626-1.372 3.575-.938 6.178-1.05 1.5-2.612-.35-5.684.841-10.082 2.39-1.472 1.423-1.078 4.684-.822 1.403 2.773.948 7.713.907 11.056 4.863.192 11.461 1.025 15.795-.588 4.372-4.652-1.384-8.724 8.116-15.447z"/><path fill="#838383" d="M947.622 424.999c7.849-.996 15.08 4.399 16.365 12.208s-3.839 15.237-11.593 16.81a14.71 14.71 0 0 1-14.184-4.954 14.713 14.713 0 0 1 9.412-24.064"/><path fill="#838383" d="M897.114 678.642c2.23.278 2.361.292 4.372 1.252 2.038 4.759-.406 3.952.15 8.02.706 5.164 5.054.774 9.028 4.012l.063 2.595c-3.285 2.928-3.623-.75-8.213 2.217-2.55 7.586 3.674 24.119-3.858 28.95l-1.312-.331c-1.75-5.572-1.273-22.487-1.236-29.273-8.329-1.488-10.658-1.3-18.956.528-8.64 7.984-2.873 18.773-5.305 29.13l-1.52.766c-4.95-4.531-4.97-30.782-2.18-34.491 2.421.267 2.924-.081 4.608 1.135 3.521.444 3.085-.198 6.895-2.583 5.456-.08 11.348.07 16.841.11-.153-4.945.012-7.102.623-12.037"/><path fill="#838383" d="M495.65 676.029c4.846-.036 23.593-.945 26.422 2.903-3.981 3.036-17.779 2.33-23.343 2.301l.016 17.263c5.095.074 18.015-1.483 22.284 1.116.828.504.75 3.277.859 4.658a839 839 0 0 1-23.317-.213c-.092 3.317.154 19.617-.788 21.22-2.972.656-1.755.716-4.628-.19-.894-4.957-1.16-44.373.337-48.494z"/><path fill="#838383" d="M593.421 690.266c1.338.142 2.695.402 4.024.624 4.068 6.122-5.41 38.619 15.19 28.942 7.537-3.542 3.855-21.828 5.473-29.262l1.317-.678c3.983.83 3.488 3.438 3.679 6.557.006 5.76 1.532 25.845-1.123 29.161l-3.483-.001-1.608-1.928c-3.445-.528-9.485 3.356-13.312 3.14-14.487-.819-10.463-26.103-10.157-36.555"/><path fill="#838383" d="M706.22 689.806c6.072-.081 12.709 1.064 16.452 6.44.172 3.018.486 1.892-1.048 4.31-4.684.116-14.307-12.136-19.954-1.463 1.794 5.796 21.763 7.352 22.034 16.741.222 7.755-4.964 9.836-11.34 10.802a60 60 0 0 1-8.258-.68c-4.402-.703-9.242-5.355-8.47-9.916 2.892-.992 5.5.472 7.617 2.406l3.176 2.874c3.601 1.12 10.568.216 12.337-3.47-2.621-6.826-19.35-7.862-23.252-17.777.123-5.875 5.616-8.607 10.706-10.267"/><path fill="#838383" d="M946.087 689.766c18.393-.264 16.536 12.676 16.53 26.412-.002 3.57.815 8.287-2.334 10.152-12.352-5.534 6.732-25.473-12.065-31.902l-.958-.322c-16.865 6.852-3.673 28.914-12.7 31.27l-1.229-.842c-.89-7.16-.552-25.07.647-32.904.104-.684 1.092-.706 1.986-.942l3.056 1.896q3.561-1.343 7.067-2.818"/><path fill="#838383" d="m529.897 690.158 3.126.695c6.802 7.112-5.95 33.293 11.609 30.268 15.441-2.66 5.427-22.032 10.493-30.21 3.048-.017 2.062-.46 3.972 1.313l.058 4.225c-.047 6.475.929 23.268-.62 28.736-1.882-.905-2.811-1.23-4.81-1.845-29.193 12.374-24.573-13.936-23.828-33.182"/><path fill="#838383" d="M762.138 689.898c6.767-.214 17.52 1.99 18.412 10.303l-1.143 1.319c-5.393.638-16.649-12.876-22.044-4.491-7.786 12.105-5.066 26.388 13.12 23.841 2.884-2.968 3.96-4.824 7.776-5.217l1.147 1.099-.276 2.448c-1.5 2.512-3.788 5.21-6.659 6.152-25.724 8.433-35.674-25.94-10.333-35.454"/><defs><linearGradient id="a" x1="405.172" x2="403.609" y1="360.335" y2="371.525" gradientUnits="userSpaceOnUse"><stop offset="0" stop-color="#faf7fc" stop-opacity="0"/><stop offset="1" stop-color="#f4f3f1" stop-opacity=".027"/></linearGradient></defs><path fill="url(#a)" d="m376.538 359.966.442-1.005-.245-.16c2.46-.144 3.347-.472 5.547-1.45l.372.573-.37 1.062c1.747 1.147 9.884.726 12.259.514 14.451 3.798 32.902 8.881 43.946 19.586l-.694.32c-10.256-5.508-13.07-7.755-25.196-10.784-9.516-2.376-27.812-4.515-36.061-8.656" transform="scale(1.33333)"/><path fill="#838383" d="M572.645 678.762c2.444.32 2.634.29 4.77 1.431 2.01 3.812-.087 3.161.484 8.484 2.422 2.892 2.422 1.385 7.913 2.207l.884 1.4c-1.504 6.928-3.961 1.325-8.016 4.173-1.023 5.873-.404 22.624-.563 29.936-2.344-.352-2.801-.241-4.498-1.728-2.802-6.259-.588-19.661-.552-27.576-1.991-3.217-2.351.487-6.716-2.6l-.198-2.179c1.954-3.17.702.656 5.379-2.593 1.772-2.948 1.21-7.377 1.113-10.955"/><path fill="#838383" d="M793.885 674.161c1.017 5.016.702 14.46.68 19.933 28.384-18.848 28.102 26.94 21.973 31.666l-1.51-.275c-3.742-7.33 2.162-24.227-7.113-30.397-5.952-1.786-10.978 1.84-13.52 7.132-1.29-8.616-1.721-19.395-.51-28.059"/><path fill="#838383" d="M647.241 689.536c2.884.5 3.068.228 4.65 2.516-1.686 3.632-11.913 5.826-13.043 9.345-2.082 6.473 1.902 18.15-1.066 24.581l-3.178 1.09-1.367-1.556c-1.31-6.412-.512-23.356-.683-30.664-.06-2.66.158-3.291 1.774-4.662 3.045.74 2.373.85 4.826 3.619 2.726-1.692 5.215-2.868 8.087-4.27"/><path fill="#838383" d="M1080.047 673.386c1.794.49 2.264.767 3.933 1.624 1.803 7.466-.104 41.222.5 51.984-2.047-.621-3.273-1.132-5.245-1.976-.604-6.356-1.434-47.961.812-51.632"/><path fill="#838383" d="M794.395 702.22c.186 3.724.464 19.734-.482 22.46-2.326 1.369-1.262 1.173-3.871.833-2.697-3.324-1.579-41.604-1.339-48.899 1.552-2.262 1.87-1.701 5.182-2.453-1.211 8.664-.78 19.443.51 28.059"/><path fill="#838383" d="M1236.626 689.568c2.987.026 4.346-.151 6.07 2.274-2.306 3.663-12.18 6.127-13.124 8.336-2.583 6.038 1.32 18.959-1.8 25.202-.463.924-2.778 1.009-4.136 1.238.677-10.537-1.343-26.482-.287-35.694l2.12-.54c2.37 1.104 1.588.63 2.895 3.806l1.454-.126c2.796-2.683 3.248-2.954 6.808-4.496"/><path fill="#838383" d="M917.136 690.7c2.066.214 2.591.352 4.591.94 1.216 4.038.553 28.296.487 34.349l-4.408-.67c-1.815-2.377-.748-29.88-.67-34.62"/><path fill="#f8f6f8" fill-opacity=".047" d="M759.867 422.904c.462-3.47.92-16.348 1.527-18.122 2.084 8.448 1.447 13.429.423 21.797z"/></svg>