<svg xmlns="http://www.w3.org/2000/svg" viewBox="284.25 388.89 1227.78 263.17"><path fill="#838383" d="M284.253 431.912c27.92 43.703 68.169 61.63 117.33 72.38 11.716 2.563 19.883 3.881 28.701 12.745 7.504 8.467 9.687 11.282 13.387 22.079-3.157 8.89-26.199 28.53-32.26 40.519-11.652 23.045-8.843 46.909-9.212 71.745l-71.342.165c.28-32.652-1.386-74.637.24-106.196 24.317 9.039 37.587 7.838 61.865 13.834-38.87-17.463-80.17-11.348-90.044-64.274l.907 1.007c17.582 19.333 43.662 30.177 69.54 31.375l10.34 1.64c3.845 1.022 15.835 5.269 18.02 5.474-4.851-3.336-9.755-5.024-15.231-6.877-6.487-2.895-15.74-5.448-22.754-7.333-49.278-13.25-75.254-36.23-79.487-88.283"/><path fill="#838383" d="M422.435 548.001c-20.157-11.664-27.69-15.698-50.192-19.685l1.123-1.025 10.34 1.64c3.844 1.022 15.834 5.269 18.018 5.474 5.319.095 16.546 10.086 20.71 13.596"/><path fill="#838383" d="M414.32 500.373c12.156-14.46 23.632-29.564 35.695-44.334 20.497-25.15 43.653-56.82 78.486-60.745 25.235-2.844 50.444 12.216 57.678 36.7 1.788 6.05 2.244 10.018 2.82 16.229-2.516-3.493-6.62-10.97-9.46-15.277 12.973 29.476.145 35.182-1.07 62.202-.105 2.356 2.242 10.359 3.04 13.135-10.558-13.108-8.454-19.528-5.232-35.238.584-6.427 1.108-12.66-.542-19.017-.88 2.584-.991 11.618-1.322 15.301-7.804 27.215-16.55 39.478 12.9 57.178l-.973-.11c-23.735-2.761-32.679-24.413-29.112-46.058 5.88-35.69-20.43-39.584-44.49-20.733-25.48 21.987-45.797 52.345-67.576 77.845-1.356-8.167-5.244-15.151-10.458-21.515l-1.294.161c-6.904-9.672-8.426-10.17-19.09-15.724"/><path fill="#838383" d="M475.43 522.345a6460 6460 0 0 0 49.453 62.758c14.494 18.243 31.833 42.273 49.57 57.011 4.63 3.847 16.183 6.671 22.658 8.663-9.878 1.81-29.407 1.18-40.076 1.152-9.23.025-18.767.401-27.907-1.007-9.008-1.388-17.183-4.197-24.68-9.453-16.072-11.265-52.502-58.417-64.854-75.462 6.745-10.554 27.186-33.778 35.837-43.662"/><path fill="#838383" d="M302.737 389.848c50.193-2.072 101.703-6.774 102.257 60.822.06 7.362 1.634 42.97-1.33 46.9l-2.585-.597c-27.241-9.88-41.6-11.45-69.056-27.277-.566-4.424-1.654-9.864-1.744-14.333-.37-18.741 2.806-39.463-12.193-53.899-6.97-6.709-18.13-6.798-21.037-9.849 1.833-1.727 2.804-1.35 5.688-1.767"/><path fill="#838383" d="M1401.623 516.619c17.76-1.88 19.533 7.057 26.44 10.001.613-4.784 1.04-8.025 5.827-9.555 2.413 1.106 1.613.614 3.293 2.952 2.813 17.202.987 53.738-2.013 71.736-2.147 12.896-24.4 21.133-36.12 16.2-6.693-2.82-22.973-9.042-20.093-19.153 1.88-1.125 6.386-.904 8.866-.964 3.774 7.815 10.44 13.456 19.48 13.45a20.61 20.61 0 0 0 14.827-6.41c7.106-7.43 6.666-15.216 6.573-24.535-5.2 5.392-9.08 8.528-16.627 10.372a28.22 28.22 0 0 1-21.226-3.39c-23.333-14.406-21.013-53.655 10.773-60.704m10.947 55.366c14.066-5.39 20.813-18.809 14.8-33.012a23.06 23.06 0 0 0-13.094-12.688c-3.693-1.369-8.04-1.332-11.96-1.129-14.533 5.37-21.346 18.408-15.466 33.16a22.28 22.28 0 0 0 12.36 12.568c4.386 1.767 8.733 1.61 13.36 1.101"/><path fill="#838383" d="M737.242 516.61c12.897-.373 17.524.094 26.868 9.265l1.119-.492c-.336-2.6-.66-3.266.405-5.514 2.143-1.538 6.065-2.108 8.344-.705 1.244 8.539.773 51.055.441 60.988l-5.882-.587c-2.864-2-2.182-1.836-3.88-5.322-2.419-.426-3.823 1.193-6.474 2.822-8.964 5.35-22.249 5.895-31.24.412-26.269-16.018-19.727-53.973 10.3-60.868m10.983 55.82c28.094-7.943 22.472-49.626-9.404-47.143-14.297 4.64-21.808 16.973-16.685 31.653A23.62 23.62 0 0 0 734.35 570.5c4.83 2.286 8.673 2.196 13.875 1.928"/><path fill="#838383" d="M1257.308 516.559c12.76-.723 16.851 2.47 26.13 10.292-.096-2.904-.37-4.892.692-7.639 2.999-1.67 4.54-1.007 8.495-.988.04 7.132 1.422 58.103-.743 60.693-2.924.326-3.857.52-6.848-.068-1.95-2.552-1.34-2.416-1.544-6.205l-.941-.328-2.94 2.647c-42.813 30.22-73.715-47.306-22.301-58.404m9.316 55.854c14.331-4.344 20.762-17.217 16.305-31.452a22.56 22.56 0 0 0-11.416-13.589c-4.422-2.197-9.167-2.456-14.016-2.09-14.433 4.882-21.479 17.873-16.033 32.435a23.45 23.45 0 0 0 12.613 13.384c4.043 1.739 8.237 1.566 12.547 1.312"/><path fill="#838383" d="M882.864 516.543c17.762-1.835 33.643 11.088 35.463 28.854s-11.11 33.642-28.872 35.45c-17.747 1.808-33.598-11.11-35.417-28.859-1.819-17.748 11.084-33.613 28.826-35.445m8.16 55.889c14.05-4.587 21.142-17.79 16.347-31.95a22.58 22.58 0 0 0-12.017-13.465c-4.424-2.033-9.154-2.09-13.915-1.762-6.433 2.393-13.159 5.941-15.504 12.665-7.116 20.407 4.243 35.896 25.088 34.512"/><path fill="#838383" d="M1477.716 516.567a111 111 0 0 1 3.974-.096c22.453-.246 30.426 14.741 30.346 35.024l-52.053.236c4.56 19.7 22.173 29.24 37.96 14.409 2.36-3.677 3.747-4.401 7.52-6.11 2.8.3 1.96-.211 3.467 1.607 1.026 9.735-10.027 16.507-18.214 18.51-43.64 10.673-56.8-54.782-13-63.58m-17.28 27.262 27.494.164c4.906-.054 10.8.04 15.613-.24-4.8-16.16-11.493-20.144-28.133-18.496-9.36 4.595-12.907 8.05-14.974 18.572"/><path fill="#838383" d="M1165.174 495.967c3.306.016 5.52-.139 8.7.817 1.38 4.516 1.111 21.843 1.096 27.524 7.994-6.936 13.862-9.21 24.467-7.203 20.744 3.927 18.06 24.496 17.732 40.655-.136 6.683.76 14.512-.69 21.105l-2.127.918c-2.795-.072-3.166-.084-5.322-1.828-1.52-2.891-.608-32.095-.569-37.292-1.296-18.275-20.876-20.956-32.556-6.659-2.516 12.893-1.61 30.264-1.435 43.657-1.852 2.14-.966 1.432-4.01 2.484-3.28-.776-4.968-2.113-5.094-5.97-.266-8.246-.068-16.598-.037-24.862q.25-26.673-.155-53.346"/><path fill="#838383" d="M658.968 496.287c2.93-.044 5.708-.414 8.268.802 1.62 8.363.793 37.483.693 47.03 8.221-5.796 27.945-33.332 38.06-26.107-.81 2.167-25.268 26.547-28.488 29.872 5.264 4.917 11.055 11.139 16.15 16.36 5.24 5.085 10.3 10.6 15.303 15.936l-12.162-.096c-5.57-5.176-22.274-25.184-28.392-25.279-.792 2.992-.628 20.074-.856 24.627-3.063.079-5.142.288-8.126-.603-.701-3.07-.478-20.797-.478-24.916z"/><path fill="#838383" d="M1334.65 516.608a45 45 0 0 1 3.853-.141c32.094-.02 24.587 40.149 24.454 62.965l-9.294-.039c-.453-13.636 3.787-39.905-5.08-50.473-3.293-3.919-9.413-3.893-14.266-3.91-28.43 7.265-5.252 49.367-19.1 55-2.403-.426-2.944-.06-4.227-1.46-.323-5.706-.68-58.593.176-60.367 13.681-1.226 6.421 1.349 9.659 5.529 5.373-3.545 7.508-5.552 13.825-7.104"/><path fill="#838383" d="M945.343 516.643c8.98-.583 20.632.384 25.49 9.473 1.163 2.173 2.29 6.115 1.554 8.436-9.528 1.41-10.497-9.024-20.392-9.97-6.387-.611-14.21 2.571-14.496 9.505 2.207 8.541 21.441 10.928 28.801 15.873 17.555 11.796 6.136 29.059-11.678 31.36-10.743-.081-22.636-2.987-25.94-15.973-.427-1.68.506-2.46 1.489-3.678 11.735-4.021 7.957 11.89 20.136 11.668 6.628-.121 15.412-1.47 15.41-10.225-4.258-9.364-18.867-10.447-27.205-15.03-18.872-10.373-10.96-26.273 6.831-31.44"/><path fill="#838383" d="M1119.273 516.541c12.303-.608 22.588 2.927 30.799 12.879 1.684 2.04 1.55 3.125 1.144 5.41-3.37 1.769-3.7 1.107-8.03 1.038-21.354-24.807-48.091-4.25-39.451 23.435 4.096 13.124 17.422 15.498 29.75 11.562 4.312-2.866 6.124-5.25 9.47-9.1 2.385-.23 7.595-.041 10.206-.017a179 179 0 0 1-2.264 3.837c-4.601 7.526-11.61 13.366-20.34 15.323a31.65 31.65 0 0 1-23.746-4.188 32.62 32.62 0 0 1-14.002-20.615c-4.216-19.717 6.902-35.713 26.464-39.564"/><path fill="#838383" d="M1075.856 518.187c3.301-.163 7.445-.083 10.824-.115-6.061 9.48-13.828 20.165-20.319 29.533a1159 1159 0 0 1 19.787 30.938l-.493 1.26-9.123-.035c-5.345-7.636-9.964-17.064-15.715-24.11l-15.012 23.747c-3.409.122-7.493-.02-10.96-.053a765 765 0 0 1 20.891-31.181c-4.107-7.495-14.453-21.083-19.937-30.126 15.226-.494 13.86 5.879 21.452 17.055 1.302 1.917 2.665 3.99 3.98 5.915a957 957 0 0 1 14.625-22.828"/><path fill="#838383" d="M840.877 517.39c3.51-.158 6.818-.671 9.524 1.286.368 2.69.166 3.14-.648 5.755-3.903 3.282-8.898 1.376-13 3.65-14.552 8.068-5.815 38.73-9.447 50.474-2.265 1.725-3.779 1.016-7.27.938-1.835-2.08-1.051-54.116-1.042-61.528 2.664-.013 7.141-.316 9.408.66.037 2.286-.136 4.438.673 6.534 3.808-3.199 6.242-5.492 10.919-7.416z"/><path fill="#838383" d="M792.353 518.14c3.597-.104 5.118-.275 8.62.656 1.186 4.195.578 53.356.553 60.835-2.567.074-6.759.468-8.665-1.09-1.362-11.618-.383-46.529-.508-60.401"/><path fill="#838383" d="M986.852 539.197c8.235-.197 29.736-1.02 37.088.103 1.247 1.901.815 5.877.797 8.415-10.876-.07-27.674.79-37.827-.238-1.068-2.597-.391-5.369-.058-8.28"/><path fill="#838383" d="M795.22 494.933a6.5 6.5 0 0 1 7.955 4.676 6.501 6.501 0 1 1-12.596 3.223 6.5 6.5 0 0 1 4.64-7.899"/><path fill="#838383" d="m433.41 516.097 1.294-.161c5.214 6.364 9.102 13.348 10.458 21.515l-1.491 1.665c-3.7-10.797-5.883-13.612-13.387-22.079 1.292-.086 1.896-.461 3.126-.94"/><path fill="#838383" d="M574.413 469.33c.33-3.684.443-12.718 1.322-15.302 1.65 6.356 1.126 12.59.542 19.017z"/><path fill="#838383" d="M386.494 527.528c5.476 1.853 10.38 3.541 15.23 6.877-2.184-.205-14.174-4.452-18.018-5.474z"/></svg>