<svg xmlns="http://www.w3.org/2000/svg" viewBox="438.1 336.03 910.17 287.8">
  <path fill="#838383" d="M824.09 477.373c22.713-1.178 38.488 8.662 51.894 26.092.33-7.713.315-14.49.194-22.217l20.242-.144.327 137.34-19.913-.106-.27-22.93c-5.06 6.682-8.456 9.978-14.869 14.984-46.014 28.597-105.044 2.61-109.009-53.068-3.28-46.065 25.32-76.417 71.404-79.95m9.444 124.841c28.828-4.407 48.598-31.394 44.114-60.218s-31.517-48.525-60.322-43.963c-28.695 4.546-48.3 31.46-43.833 60.175 4.466 28.713 31.322 48.396 60.04 44.006"/>
  <path fill="#838383" d="M438.096 381.343c22.35 35.703 58.77 60.496 98.924 72.063 32.577 9.385 63.116 10.346 77.95 45.947-5.026 7.306-20.169 24.635-26.727 31.795-23.55 25.71-18.854 58.188-18.966 92.208l-79.569.01.219-115.847c27.738 10.488 46.221 7.881 74.692 18.114-42.579-24.382-94.882-10.238-105.895-74.24 12.512 13.647 25.945 22.39 43.325 28.56 11 5.522 35.394 8.374 48.082 11.542 16.168 4.038 19.92 7.034 33.594 14.378l.926-.426c-14.726-14.274-39.327-21.05-58.595-26.115-32.017-8.4-61.813-23.054-77.344-53.962-7.985-15.891-8.784-26.872-10.616-44.027"/>
  <path fill="#838383" d="M1141.134 478.28c39.298-5.73 75.823 21.417 81.678 60.705 5.854 39.288-21.168 75.91-60.427 81.893-39.438 6.01-76.256-21.17-82.137-60.637-5.881-39.468 21.41-76.206 60.886-81.96m17.674 123.09c28.677-4.174 48.51-30.854 44.25-59.526s-30.992-48.43-59.644-44.083c-28.53 4.328-48.18 30.93-43.94 59.48 4.242 28.55 30.778 48.285 59.334 44.13"/>
  <path fill="#838383" d="m581.46 457.195 37.04-45.63c23.492-28.838 51.004-66.165 90.677-70.411 36.076-3.862 66.902 20.404 67.068 57.608-3.808-8.612-7.332-16.823-14.91-22.979 8.076 12.927 14.37 25.372 10.366 41.17-2.522 9.95-8.232 19.69-8.824 29.8-.07 1.191 4.326 13.757 4.913 15.463-11.705-3.602-7.68-27.218-5.973-35.637 1.024-8.368 1.661-13.35-.423-21.797-.608 1.774-1.065 14.652-1.527 18.122-8.212 25.915-16.774 46.328 15.22 60.961-13.005-2.412-17.368-3.549-26.478-14.68-18.425-22.509 8.662-62.45-22.884-70.277-10.203-2.53-22.984 3.546-30.681 9.227-29.838 22.023-53.415 63.652-78.739 89.342-6.559-21.88-13.641-31.018-34.845-40.282"/>
  <path fill="#838383" d="M650.553 479.35c4.935 4.714 16.116 19.9 21.096 26.18l46.913 58.855c14.03 17.574 29.007 38.555 47.688 51.733 4.15 2.928 12.721 3.023 17.33 6.296l-.442.803c-7.85.927-31.473.485-40.484.545-37.666.3-53.81.871-80.602-30.835-17.886-21.167-35.147-43.403-52.735-64.782 6.723-9.804 32.935-39.174 41.236-48.796"/>
  <path fill="#838383" d="M464.65 336.5c2.97-.209 6.878-.248 9.954-.189 26.373.51 60.99-5.032 80.808 16.667 16.621 18.197 16.31 42.534 16.4 65.374a712 712 0 0 1-.524 35.866l-8.512-2.36c-25.25-10.211-48.121-12.987-72.792-29.011-1.08-23.176 4.148-51.59-12.245-71.155-6.455-7.702-16.705-8.968-25.595-12.764l.022-1.133c3.973-1.49 8.225-1.244 12.485-1.295"/>
  <path fill="#838383" d="M1284.137 478.116a60 60 0 0 1 3.852-.392c30.878-2.168 55.008 8.581 56.914 42.224l-18.554-.05c-2.135-7.95-3.82-13.977-10.606-19.287-12.2-9.819-36.176-8.723-45.94 3.882-5.76 7.866-5.7 18.868 2.612 24.918 21.772 15.858 71.222 12.516 75.488 47.037 3.4 27.43-17.33 41.594-41.446 44.866-33.506.81-56.976-6.958-61.643-43.38l20.895-.037c1.658 7.71 4.122 16.446 11.106 20.95 12.32 7.947 38.686 7.878 47.747-5.36 2.43-3.55 3.817-10.723 2.5-14.706-8.044-24.297-48.437-19.632-66.88-33.792-6.81-4.606-13.334-11.049-14.622-19.792-4.04-27.446 14.118-42.946 38.577-47.08"/>
  <path fill="#838383" d="M1055.928 479c2.88-.412 12.539-.237 15.944-.245l-.136 20.024-1.045-.02c-53.108-.978-51.62 31.673-51.362 72.569q.205 23.65.136 47.301l-20.18-.056.033-137.145 19.92.036.138 18.373c12.467-11.64 18.396-17.698 36.552-20.837"/>
  <path fill="#838383" d="m939.515 481.177 19.92-.232q.281 68.07-.21 136.137l-.806 1.068c-4.859.802-13.46.447-18.71.388-1.114-44.218-.185-92.813-.194-137.36"/>
</svg>