<svg xmlns="http://www.w3.org/2000/svg" viewBox="267.4 368.98 498.27 420.05">
  <g transform="translate(4.5, 135)">
    <path fill="#dddcdc" d="M262.898 300.353c27.934 40.339 54.417 65.579 99.174 87.111 16.666 8.018 39.541 16.808 57.373 21.624 41.578 11.228 85.122 16.64 100.493 64.645-12.771 16.421-28.684 33.161-41.771 49.691-22.96 28.999-24.642 51.086-24.69 85.784l-.032 43.552-114.983-.151.001-167.988c6.43 2.878 13.373 6.231 20.178 8.045 25.596 6.824 59.97 6.708 84.002 17.442l-.095-1.202c-35.366-20.724-78.506-16.951-112.292-42.168-22.53-16.817-32.994-37.034-37.321-64.508 29.861 34.198 66.009 47.14 109.355 54.322 32.179 5.331 56.505 12.967 83.079 32.634l.13-1.25c-14.109-11.488-26.83-20.394-43.621-27.877-21.351-9.516-44.011-13.619-66.334-20.856-64.712-20.978-104.899-60.302-112.032-130.024a111 111 0 0 1-.614-8.826"/>
    <path fill="#8a898b" d="M487.939 490.036c2.409 1.246 6.459 5.44 8.2 7.837-2.922-2.364-6.296-4.755-9.039-7.236l-.621-.551z"/>
    <path fill="#4f4e50" d="M442.548 508.906c.715.383 3.137 1.599 3.514 2.234.03.825-3.224-.941-3.419-1.032z"/>
    <path fill="#222224" d="M485.499 487.936a42 42 0 0 1 2.44 2.1l-1.46.05-1.11-.9z"/>
    <path fill="#dddcdc" d="M472.857 411.195c28.942-35.882 56.894-72.165 87.057-107.088 25.656-29.705 59.482-57.428 100.129-60.505a90 90 0 0 1 66.027 21.297c14.823 12.916 25.575 32.266 26.959 52.005.301 1.416 1.019 8.832.135 9.329-.676-.077-.552-.962-.551-1.43-3.498-10.707-10.404-19.891-17.836-28.187l-.265 1.371c11.799 15.13 16.401 36.174 13.711 54.713-5.277 36.363-22.354 34.332-4.666 72.042-28.001-25.721-1.269-56.09-10.352-84.647l-.938 2.216c1.101 22.431-4.161 31.494-11.569 51.302-8.818 23.576 4.374 49.85 27.574 59.614l-1.736 1.209c-32.86-7.348-47.102-38.841-43.768-70.191.797-7.298 2.807-14.775 2.637-22.098-.537-18.412-11.64-33.836-31.547-33.158-18.841.641-34.587 10.802-48.668 22.578-21.58 18.049-38.154 40.878-55.987 62.407-15.424 18.621-30.508 38.011-46.475 56.161-7.591-29.701-21.447-46.62-49.871-58.94"/>
    <path fill="#a5a6a9" d="M753.029 316.904c.301 1.416 1.019 8.832.135 9.329-.676-.077-.552-.962-.551-1.43.749-3.344.257-4.432.416-7.899"/>
    <path fill="#8a898b" d="M730.053 292.862c1.353.988 3.695 2.555 4.724 3.754l-.265 1.371c-1.905-1.83-2.806-3.101-4.459-5.125"/>
    <path fill="#222224" d="M731.215 334.287c.725 1.877 1.538 3.853 1.99 5.808l-.938 2.216z"/>
    <path fill="#dddcdc" d="M571.868 444.839c4.859 5.16 9.493 12.509 14.077 18.232 20.19 25.203 39.972 50.655 60.168 75.864a3856 3856 0 0 1 29.902 38.229c14.668 18.839 31.779 41.242 49.658 57.109 5.991 5.317 15.11 10.394 22.754 12.828 3.943 1.256 8.889.678 12.169 3.095.799 1.781.657.842.175 2.943l-.782.589c-16.5-.222-40.944-.151-56.614.099-36.78.783-68.247.572-97.517-25.467-13.731-12.215-24.585-26.933-36.264-41.015a1643 1643 0 0 1-56.055-70.613c17.658-23.238 39.576-49.302 58.329-71.893"/>
    <path fill="#dddcdc" d="M351.827 234.275q6.087-.207 12.177-.288c61.226-.608 91.467 33.945 92.57 94.565.156 8.558-.005 17.211-.008 25.775l-.017 52.147c-17.017-5.845-35.683-10.592-53.175-16.48-24.755-8.527-42.603-17.005-64.99-30.211.313-40.249 6.335-110.51-47.113-119.223-3.068-.5-6.638-.908-9.149-2.832l-.122-1.051c2.951-2.455 22.326-1.973 27.295-2.015a2985 2985 0 0 0 42.532-.387"/>
    <path fill="#a5a6a9" d="M748.272 453.227q1.461.38 2.9.841l.466 1.256c-2.299-.573-2.782-.668-5.102-.888z"/>
    <path fill="#4f4e50" d="M751.172 454.068c2.806.67 4.322 1.863.466 1.256z"/>
  </g>
</svg>